<svg xmlns="http://www.w3.org/2000/svg" width="24" height="24" viewBox="0 0 24 24" 
     fill="none" 
     stroke="#8B5CF6" 
     stroke-width="2" 
     stroke-linecap="round" 
     stroke-linejoin="round">
  
  <title>Manage Users</title>
  
  <path d="M12 14c-4.418 0-8 3.134-8 7v1h16v-1c0-3.866-3.582-7-8-7z" />
  <circle cx="12" cy="8" r="4" />
  
  <path fill="#FFFFFF" d="M19.4 18c.1-.3.1-.6 0-.9l1.1-1.1c.3-.3.3-.8 0-1.1l-1.4-1.4c-.3-.3-.8-.3-1.1 0l-1.1 1.1c-.3-.1-.6-.1-.9 0l-1.1-1.1c-.3-.3-.8-.3-1.1 0l-1.4 1.4c.3.3.3.8 0 1.1l1.1 1.1c-.1.3-.1.6 0 .9l-1.1 1.1c.3.3.3.8 0 1.1l1.4 1.4c.3.3.8.3 1.1 0l1.1-1.1c.3.1.6.1.9 0l1.1 1.1c.3.3.8.3 1.1 0l1.4-1.4c.3-.3.3-.8 0-1.1l-1.1-1.1z" />
  <circle fill="#FFFFFF" cx="18" cy="18" r="1.5" />
</svg>