<svg xmlns="http://www.w3.org/2000/svg" viewBox="0 0 120 120" width="100%" height="100%">
  <defs>
    <linearGradient id="paperGrad" x1="0%" y1="0%" x2="100%" y2="100%">
      <stop offset="0%" stop-color="#3B82F6" />
      <stop offset="100%" stop-color="#4F46E5" />
    </linearGradient>
  </defs>

  <path d="M 25 15 C 25 10.58 28.58 7 33 7 L 70 7 L 95 32 L 95 93 C 95 97.42 91.42 101 87 101 L 33 101 C 28.58 101 25 97.42 25 93 Z" fill="url(#paperGrad)" />

  <path d="M 70 7 L 70 26 C 70 29.31 72.69 32 76 32 L 95 32 Z" fill="#FFFFFF" opacity="0.3" />

  <g fill="none" stroke="#FFFFFF" stroke-width="5" stroke-linecap="round" stroke-linejoin="round">
    <path d="M 45 37 L 33 46 L 45 55" />
    <path d="M 75 37 L 87 46 L 75 55" />
    <path d="M 64 34 L 56 58" />
  </g>

  <g fill="#FFFFFF" opacity="0.6">
    <rect x="35" y="72" width="50" height="4" rx="2" />
    <rect x="35" y="84" width="30" height="4" rx="2" />
  </g>
</svg>
