<svg xmlns="http://www.w3.org/2000/svg" width="24" height="24" viewBox="0 0 24 24"
     fill="none"
     stroke="#16A34A"
     stroke-width="2"
     stroke-linecap="round"
     stroke-linejoin="round">

  <title>Settings</title>

  <circle cx="12" cy="12" r="3" />
  <path d="M19.07 4.93a10 10 0 0 0-14.14 0c-3.9 3.9-3.9 10.24 0 14.14a10 10 0 0 0 14.14 0c3.9-3.9 3.9-10.24 0-14.14zM12 2v2M22 12h-2M12 22v-2M2 12h2M19.07 19.07l-1.41-1.41M4.93 4.93l1.41 1.41M19.07 4.93l-1.41 1.41M4.93 19.07l1.41-1.41" />

</svg>